<svg width="463" height="100" viewBox="0 0 463 100" fill="none" xmlns="http://www.w3.org/2000/svg">
<g clip-path="url(#clip0_84_17946)">
<path d="M222.101 54.6664C222.101 43.3403 216.902 33.8994 200.763 33.8994C191.963 33.8994 185.332 36.2672 181.972 38.1373L186.779 46.7034C189.913 45.2406 194.103 44.1547 198.096 44.1547C205.51 44.1547 206.896 47.7893 206.896 50.3531V53.2789C191.239 53.2789 178.506 56.9436 178.506 69.446C178.506 77.1224 184.338 84.2106 194.148 84.2106C199.889 84.2106 204.832 82.1445 207.996 78.3138H208.298L209.187 83.1399H222.101V54.6814V54.6664ZM207.409 62.1165V65.6003C207.409 66.4901 207.303 67.3648 207.107 68.149C206.128 71.1955 203.054 73.6688 199.286 73.6688C195.926 73.6688 192.385 72.6131 192.355 68.7674C192.4 62.6595 199.075 62.1014 207.394 62.1014L207.409 62.1165Z" fill="white"/>
<path d="M358.073 58.1809C358.179 43.4314 349.815 33.8849 338.423 33.8849C331.807 33.8849 326.85 36.5392 324.017 40.6715H323.821V14.9277H309.053V83.0651H321.199L321.786 76.369H321.982C325.388 82.0697 330.737 84.1358 336.283 84.1358C347.178 84.1358 358.073 75.4792 358.073 58.1658V58.1809ZM332.787 72.3272C328.507 72.3272 325.102 69.2807 324.122 65.254C323.926 64.4698 323.836 63.58 323.836 62.5997V55.5266C323.836 54.5463 323.926 53.6565 324.122 52.7667C325.102 48.4384 328.794 45.392 332.787 45.392C339.689 45.392 343.004 51.2887 343.004 58.7691C343.004 67.4257 339.116 72.3423 332.787 72.3423V72.3272Z" fill="white"/>
<path d="M463 54.6664C463 43.3403 457.786 33.8994 441.662 33.8994C432.861 33.8994 426.231 36.2672 422.87 38.1373L427.677 46.7034C430.812 45.2406 435.001 44.1547 438.994 44.1547C446.409 44.1547 447.795 47.7893 447.795 50.3531V53.2789C432.138 53.2789 419.404 56.9436 419.404 69.446C419.404 77.1224 425.251 84.2106 435.046 84.2106C440.788 84.2106 445.73 82.1445 448.895 78.3138H449.196L450.085 83.1399H463V54.6814V54.6664ZM448.322 65.6003C448.322 66.4901 448.217 67.3648 448.021 68.149C447.026 71.1955 443.967 73.6688 440.2 73.6688C436.839 73.6688 433.298 72.6131 433.283 68.7674C433.313 62.6595 440.004 62.1014 448.307 62.1014V65.6003H448.322Z" fill="white"/>
<path d="M398.367 14.9131V39.2996H398.171C396.001 35.9515 391.36 33.8854 385.452 33.8854C373.924 33.8854 363.768 43.2509 363.858 59.4934C363.858 74.4541 373.02 84.1966 384.458 84.1966C390.666 84.1966 396.483 81.4367 399.542 76.0225H399.738L400.431 83.1107H413.331V14.9131H398.367ZM398.352 61.6651C398.352 62.947 398.246 64.0329 397.96 65.1187C397.071 69.3566 393.62 72.2974 389.28 72.2974C383.071 72.2974 379.033 67.1849 379.033 59.0108C379.033 51.4249 382.589 45.3321 389.385 45.3321C394.012 45.3321 397.267 48.6801 398.156 52.7219C398.261 53.5061 398.352 54.592 398.352 55.3762V61.6802V61.6651Z" fill="white"/>
<path d="M285.211 33.8994C281.654 33.8994 278.701 34.6836 276.049 36.2672C273.773 37.6547 271.618 39.6152 269.84 42.0735H269.644C267.58 37.0514 262.652 33.8994 256.443 33.8994C248.155 33.8994 243.921 38.4238 241.856 41.4853H241.555L240.862 34.9853H228.641V83.1248H243.228V55.0736C243.228 53.8972 243.333 52.5248 243.815 51.3334C244.705 48.8751 246.965 45.9192 250.808 45.9192C255.539 45.9192 257.709 50.0515 257.709 56.1594V83.1399H272.296V54.9831C272.296 53.8067 272.492 52.2232 272.884 51.1524C273.864 48.3021 276.335 45.9343 279.786 45.9343C284.608 45.9343 286.883 49.9761 286.883 56.9587V83.1399H301.471V54.787C301.471 40.4145 294.478 33.9145 285.211 33.9145V33.8994Z" fill="white"/>
<path d="M146.664 70.5017H173.081V83.1097H131.58V16.752H146.664V70.5017Z" fill="white"/>
<path d="M25.96 17.4202L43.36 47.9102L24 83.2202L36.46 83.2102L49.36 59.1202L63.1 83.2202H75.8L38.66 17.4102L25.96 17.4202Z" fill="white"/>
<path d="M0 0V100H100V0H0ZM91.17 91.1964H8.83V8.80357H91.17V91.1964Z" fill="white"/>
</g>
<defs>
<clipPath id="clip0_84_17946">
<rect width="463" height="100" fill="white"/>
</clipPath>
</defs>
</svg>
